<?xml version="1.0" encoding="utf-8"?><svg viewBox="0 0 800 800" xmlns="http://www.w3.org/2000/svg" xmlns:xlink="http://www.w3.org/1999/xlink"><style>:root>svg{display:none}:root>svg:target{display:block}</style><svg viewBox="0 0 24 24" id="dark" xmlns="http://www.w3.org/2000/svg"><path d="M20.21 15.32A8.56 8.56 0 1 1 11.29 3.5a.5.5 0 0 1 .51.28.49.49 0 0 1-.09.57A6.46 6.46 0 0 0 9.8 9a6.57 6.57 0 0 0 9.71 5.72.52.52 0 0 1 .58.07.52.52 0 0 1 .12.53Z"/></svg><svg xml:space="preserve" viewBox="0 0 512 512" id="light" xmlns="http://www.w3.org/2000/svg"><path d="M256 144c-61.75 0-112 50.25-112 112s50.25 112 112 112 112-50.25 112-112-50.25-112-112-112zm0 192c-44.188 0-80-35.812-80-80s35.812-80 80-80 80 35.812 80 80-35.812 80-80 80zm0-224c8.833 0 16-7.167 16-16V64c0-8.833-7.167-16-16-16s-16 7.167-16 16v32c0 8.833 7.167 16 16 16zm0 288c-8.833 0-16 7.167-16 16v32c0 8.833 7.167 16 16 16s16-7.167 16-16v-32c0-8.833-7.167-16-16-16zm124.438-245.833 22.625-22.625c6.25-6.25 6.25-16.375 0-22.625s-16.375-6.25-22.625 0l-22.625 22.625c-6.25 6.25-6.25 16.375 0 22.625s16.375 6.25 22.625 0zM131.562 357.834l-22.625 22.625c-6.25 6.249-6.25 16.374 0 22.624s16.375 6.25 22.625 0l22.625-22.624c6.25-6.271 6.25-16.376 0-22.625-6.249-6.251-16.375-6.272-22.625 0zM112 256c0-8.833-7.167-16-16-16H64c-8.833 0-16 7.167-16 16s7.167 16 16 16h32c8.833 0 16-7.167 16-16zm336-16h-32c-8.833 0-16 7.167-16 16s7.167 16 16 16h32c8.833 0 16-7.167 16-16s-7.167-16-16-16zm-316.459-85.833c6.251 6.25 16.376 6.25 22.625 0 6.251-6.25 6.251-16.375 0-22.625l-22.625-22.625c-6.25-6.25-16.374-6.25-22.625 0-6.25 6.25-6.25 16.375 0 22.625l22.625 22.625zm248.918 203.645c-6.271-6.25-16.376-6.25-22.625 0-6.251 6.25-6.271 16.375 0 22.625l22.625 22.625c6.249 6.25 16.374 6.25 22.624 0s6.25-16.375 0-22.625l-22.624-22.625z"/></svg><svg viewBox="0 0 30 30" id="search" xmlns="http://www.w3.org/2000/svg"><path d="M13 3C7.489 3 3 7.489 3 13s4.489 10 10 10a9.947 9.947 0 0 0 6.322-2.264l5.971 5.971a1 1 0 1 0 1.414-1.414l-5.97-5.97A9.947 9.947 0 0 0 23 13c0-5.511-4.489-10-10-10zm0 2c4.43 0 8 3.57 8 8s-3.57 8-8 8-8-3.57-8-8 3.57-8 8-8z"/></svg><svg viewBox="0 0 24 24" class="dicon dline" id="totop" xmlns="http://www.w3.org/2000/svg"><path d="M21 12a9 9 0 1 1-9-9 9 9 0 0 1 9 9Zm-9 4V8m-2.5 2.5L12 8l2.5 2.5" style="fill:none;stroke-linecap:round;stroke-linejoin:round;stroke-width:1.5"/></svg></svg>